<?xml version="1.0" encoding="utf-8"?>
<!-- Generator: Adobe Illustrator 16.0.0, SVG Export Plug-In . SVG Version: 6.00 Build 0)  -->
<!DOCTYPE svg PUBLIC "-//W3C//DTD SVG 1.1 Tiny//EN" "http://www.w3.org/Graphics/SVG/1.1/DTD/svg11-tiny.dtd">
<svg version="1.1" baseProfile="tiny" id="Layer_1" xmlns="http://www.w3.org/2000/svg" xmlns:xlink="http://www.w3.org/1999/xlink"
	 x="0px" y="0px" width="100px" height="100px" viewBox="0 0 100 100" xml:space="preserve">
<g>
	<g>
		<path fill="#919395" d="M93.262,100H6.738C3.022,100,0,96.978,0,93.263V6.738C0,3.022,3.022,0,6.738,0h86.523
			C96.978,0,100,3.022,100,6.738v86.524C100,96.978,96.978,100,93.262,100z M6.738,3.674c-1.689,0-3.064,1.375-3.064,3.064v86.524
			c0,1.688,1.375,3.063,3.064,3.063h86.523c1.689,0,3.064-1.375,3.064-3.063V6.738c0-1.689-1.375-3.064-3.064-3.064H6.738z"/>
	</g>
</g>
</svg>
