<?xml version="1.0" encoding="utf-8"?>
<!-- Generator: Adobe Illustrator 16.0.0, SVG Export Plug-In . SVG Version: 6.00 Build 0)  -->
<!DOCTYPE svg PUBLIC "-//W3C//DTD SVG 1.1 Tiny//EN" "http://www.w3.org/Graphics/SVG/1.1/DTD/svg11-tiny.dtd">
<svg version="1.1" baseProfile="tiny" id="Layer_1" xmlns="http://www.w3.org/2000/svg" xmlns:xlink="http://www.w3.org/1999/xlink"
	 x="0px" y="0px" width="100px" height="100px" viewBox="0 0 100 100" xml:space="preserve">
<g>
	<path fill="#F1F1F2" d="M100,24.02c0,2.541-2.052,4.592-4.594,4.592H4.604C2.065,28.612,0,26.561,0,24.02v-9.896
		c0-2.541,2.065-4.601,4.604-4.601h90.803c2.542,0,4.594,2.06,4.594,4.601V24.02z"/>
	<path fill="#F1F1F2" d="M100,54.947c0,2.537-2.052,4.601-4.594,4.601H4.604C2.065,59.548,0,57.484,0,54.947v-9.895
		c0-2.537,2.065-4.597,4.604-4.597h90.803c2.542,0,4.594,2.06,4.594,4.597V54.947z"/>
	<path fill="#F1F1F2" d="M100,85.883c0,2.537-2.052,4.594-4.594,4.594H4.604C2.065,90.477,0,88.42,0,85.883v-9.896
		c0-2.541,2.065-4.598,4.604-4.598h90.803c2.542,0,4.594,2.057,4.594,4.598V85.883z"/>
</g>
</svg>
