<?xml version="1.0" encoding="utf-8"?>
<!-- Generator: Adobe Illustrator 17.1.0, SVG Export Plug-In . SVG Version: 6.00 Build 0)  -->
<!DOCTYPE svg PUBLIC "-//W3C//DTD SVG 1.1//EN" "http://www.w3.org/Graphics/SVG/1.1/DTD/svg11.dtd">
<svg version="1.1" id="Layer_1" xmlns="http://www.w3.org/2000/svg" xmlns:xlink="http://www.w3.org/1999/xlink" x="0px" y="0px"
	 viewBox="0 0 100 100" enable-background="new 0 0 100 100" xml:space="preserve">
<g>
	<ellipse cx="47.4" cy="51.8" rx="29.6" ry="39.8"/>
	<path fill="#FFFFFF" d="M50,0C22.4,0,0,22.4,0,50c0,27.6,22.4,50,50,50c27.6,0,50-22.4,50-50C100,22.4,77.6,0,50,0z M57,76.7
		C56,80,46.2,86.8,41.6,86.8c-3.3-0.1-4.7-1.7-4.8-5.9c0-2.8,1.8-10.7,2.7-13.6l4.1-13.6l0.9-4.8l-5.1,0.9c-2.6,0-2.6-2.3-2.6-2.7
		l1-3.1c0.2-1.6,10-6.3,13.7-6.3c1.7,0,2.4,0.9,3.2,2.2c0.9,0.7,1.6,1.3,1.6,1.9l0.6,1.9c0,1.1-1.3,5-2.2,7.4l-5.1,14l-2.1,7.5
		l0.2,0.7c1.5-0.1,1.7-0.3,4.4-1.9c4-2.8,4-3,5.4-3c0.7,1.1,0.8,1.6,0.9,2.7L57,76.7z M54.1,32.1c-4.7,0-8.4-3.8-8.4-8.4
		c0-4.6,3.8-8.4,8.4-8.4c4.6,0,8.4,3.8,8.4,8.4C62.5,28.3,58.7,32.1,54.1,32.1z"/>
</g>
</svg>
