<?xml version="1.0" encoding="utf-8"?>
<!-- Generator: Adobe Illustrator 16.0.0, SVG Export Plug-In . SVG Version: 6.00 Build 0)  -->
<!DOCTYPE svg PUBLIC "-//W3C//DTD SVG 1.1 Tiny//EN" "http://www.w3.org/Graphics/SVG/1.1/DTD/svg11-tiny.dtd">
<svg version="1.1" baseProfile="tiny" id="Layer_1" xmlns="http://www.w3.org/2000/svg" xmlns:xlink="http://www.w3.org/1999/xlink"
	 x="0px" y="0px" width="100px" height="100px" viewBox="0 0 100 100" xml:space="preserve">
<path fill="#2D2C2D" d="M50,0C22.385,0,0,22.385,0,50.002C0,77.618,22.385,100,50,100c27.612,0,50-22.385,50-49.998
	C100,22.385,77.612,0,50,0z M81.551,65.123c0,5.651-5.651,10.24-12.623,10.24c-6.977,0-12.623-4.589-12.623-10.24
	c0-5.662,5.647-10.246,12.623-10.246c1.977,0,3.843,0.381,5.51,1.037V27.499l-33.85,4.475v40.766
	c0,5.657-5.654,10.244-12.626,10.244c-6.977,0-12.625-4.587-12.625-10.244s5.649-10.241,12.625-10.241
	c2.561,0,4.948,0.625,6.938,1.69V23.213l46.651-6.196V65.123z"/>
</svg>
